# 3ds Max Wavefront OBJ Exporter v0.97b - (c)2007 guruware
# File Created: 17.10.2012 02:45:03

mtllib cigarettes.mtl

#
# object Box02
#

v  -2.4506 -5.6470 0.0000
v  2.4506 5.6470 0.0000
v  -2.4506 5.6470 0.0000
v  2.4506 -5.6470 0.0000
v  -2.4506 -5.6470 18.8165
v  -2.4506 5.6470 18.8172
v  2.4506 5.6470 18.2915
v  2.4506 -3.4173 16.4040
v  2.4506 -2.9730 16.0051
v  -3.0699 -5.6470 20.0841
v  2.4506 -5.6470 18.2915
v  -2.4506 5.6470 18.8162
v  -2.4506 -5.8970 0.0000
v  2.5966 -5.8499 15.3776
v  -2.4506 -5.8970 18.8153
v  2.6273 -5.8237 0.0000
v  2.6273 5.8237 0.0000
v  -2.4506 5.8970 0.0000
v  2.5966 5.8499 15.3776
v  3.6976 -5.7772 18.3954
v  1.1699 -5.8237 22.7003
v  3.6976 5.7772 18.3954
v  1.1699 5.8237 22.7003
v  -2.4506 5.8970 18.8153
v  2.4506 5.6470 15.3776
v  2.4506 -5.6470 15.3776
v  -3.2277 -5.8970 20.1614
v  -3.2277 5.8970 20.1614
v  3.5128 -5.6470 18.2918
v  3.5128 5.6470 18.2918
v  1.0819 -5.6470 22.4534
v  1.0819 5.6470 22.4534
v  -3.0699 5.6470 20.0841
v  2.4506 -3.4173 17.7489
v  2.4506 -4.0215 18.2915
v  2.4506 4.0215 18.2915
v  2.4506 3.4173 17.7489
v  2.4506 3.4173 16.4040
v  2.4506 2.9730 16.0051
# 39 vertices

vn 0.0000 0.0000 1.0000
vn 0.0000 -1.0000 0.0000
vn -0.0000 1.0000 -0.0000
vn 1.0000 0.0000 0.0000
vn 1.0000 0.0000 -0.0000
vn 0.9157 -0.0000 0.4018
vn 0.0000 1.0000 -0.0000
vn 0.0000 -1.0000 -0.0000
vn 0.0093 -1.0000 0.0000
vn 1.0000 0.0000 0.0018
vn 0.0144 0.9999 -0.0015
vn 0.0195 -0.9998 0.0006
vn 0.8846 0.0000 0.4664
vn 0.0195 0.9998 0.0006
vn 0.6043 0.0034 0.7967
vn 0.5522 0.3974 0.7329
vn -1.0000 0.0000 0.0000
vn 0.0000 0.0000 -1.0000
vn -0.5408 0.0000 0.8411
vn -0.8876 0.0000 -0.4605
vn -0.0759 0.0056 -0.9971
vn 0.5295 0.0000 -0.8483
vn -0.0411 0.6944 -0.7185
vn 0.0000 1.0000 0.0000
vn -0.8856 0.0000 -0.4645
vn 0.5364 0.0000 -0.8440
vn -0.0000 -1.0000 -0.0000
vn 0.9157 0.0000 0.4019
vn 0.0144 -0.9999 -0.0015
vn 0.0093 1.0000 0.0000
vn 0.0125 -0.9999 0.0065
vn 0.0125 0.9999 0.0065
vn 0.5629 -0.4051 0.7204
vn 0.6157 -0.0044 0.7880
vn -1.0000 -0.0000 0.0000
vn -0.8878 -0.0019 -0.4603
vn -0.8878 0.0026 -0.4603
vn -0.8876 -0.0000 -0.4606
vn -0.0683 -0.7139 -0.6970
vn -0.0975 -0.0042 -0.9952
# 40 vertex normals

vt 0.4858 0.3083 0.0000
vt 0.5635 0.1362 0.0000
vt 0.4858 0.1365 0.0000
vt 0.5633 0.3842 0.0000
vt 0.5636 0.3087 0.0000
vt 0.8819 0.3842 0.0000
vt 0.8815 0.0606 0.0000
vt 0.8728 0.1359 0.0000
vt 0.8411 0.2746 0.0000
vt 0.8343 0.2679 0.0000
vt 0.5401 0.4936 0.0000
vt 0.8588 0.4943 0.0000
vt 0.8590 0.6673 0.0000
vt 0.8861 0.6661 0.0000
vt 0.8499 0.7422 0.0000
vt 0.5402 0.7422 0.0000
vt 0.5400 0.4183 0.0000
vt 0.0278 0.1311 0.0000
vt 0.1202 0.4123 0.0000
vt 0.0280 0.4776 0.0000
vt 0.1213 0.1300 0.0000
vt 0.3328 0.1300 0.0000
vt 0.4265 0.1311 0.0000
vt 0.3341 0.4123 0.0000
vt 0.0451 0.5276 0.0000
vt 0.1230 0.5252 0.0000
vt 0.0994 0.6070 0.0000
vt 0.3331 0.4315 0.0000
vt 0.3340 0.5241 0.0000
vt 0.1221 0.4315 0.0000
vt 0.3611 0.6033 0.0000
vt 0.4105 0.5237 0.0000
vt 0.4242 0.4819 0.0000
vt 0.4267 0.4776 0.0000
vt 0.3316 0.4162 0.0000
vt 0.1220 0.4159 0.0000
vt 0.1292 0.6310 0.0000
vt 0.1248 0.9622 0.0000
vt 0.1248 0.6310 0.0000
vt 0.3333 0.0351 0.0000
vt 0.1207 0.0351 0.0000
vt 0.1245 0.6064 0.0000
vt 0.3357 0.6036 0.0000
vt 0.3280 0.6310 0.0000
vt 0.0954 0.6096 0.0000
vt 0.1245 0.4276 0.0000
vt 0.4108 0.5274 0.0000
vt 0.7252 0.7768 0.0000
vt 0.8245 0.8411 0.0000
vt 0.8234 0.8688 0.0000
vt 0.4722 0.7776 0.0000
vt 0.7259 0.8700 0.0000
vt 0.4739 0.8694 0.0000
vt 0.3797 0.8435 0.0000
vt 0.3818 0.8700 0.0000
vt 0.4751 0.9620 0.0000
vt 0.7252 0.9620 0.0000
vt 0.8730 0.3091 0.0000
vt 0.5629 0.0606 0.0000
vt 0.8638 0.2746 0.0000
vt 0.8730 0.2838 0.0000
vt 0.8730 0.1615 0.0000
vt 0.8638 0.1707 0.0000
vt 0.8411 0.1707 0.0000
vt 0.8343 0.1774 0.0000
vt 0.5402 0.6669 0.0000
vt 0.8861 0.4943 0.0000
vt 0.8498 0.4183 0.0000
vt 0.0317 0.4812 0.0000
vt 0.3324 0.6310 0.0000
vt 0.3324 0.9622 0.0000
vt 0.0445 0.5313 0.0000
vt 0.3307 0.4276 0.0000
vt 0.3657 0.6057 0.0000
# 74 texture coords

g Box02
usemtl Material__64
s off
f 1/1/1 2/2/1 3/3/1 
f 1/4/2 4/5/2 5/6/2 
f 2/2/3 6/7/3 7/8/3 
f 8/9/4 4/5/4 9/10/4 
f 3/11/5 6/12/5 5/13/5 
f 6/12/6 10/14/6 5/13/6 
f 5/13/7 11/15/7 4/16/7 
f 2/17/8 12/12/8 3/11/8 
f 13/18/9 14/19/9 15/20/9 
f 16/21/10 17/22/10 14/19/10 
f 17/22/11 18/23/11 19/24/11 
f 20/25/12 21/26/12 15/27/12 
f 22/28/13 23/29/13 20/30/13 
f 24/31/14 23/29/14 22/32/14 
f 12/33/15 19/24/15 24/34/15 
f 25/35/1 14/19/1 19/24/1 
f 26/36/16 15/20/16 14/19/16 
f 5/37/17 13/38/17 15/39/17 
f 18/40/18 17/22/18 13/41/18 
f 27/42/19 23/29/19 28/43/19 
f 28/43/20 12/44/20 27/42/20 
f 5/45/21 20/25/21 15/27/21 
f 29/46/22 22/28/22 20/30/22 
f 30/47/23 24/31/23 22/32/23 
f 29/48/24 5/49/24 10/50/24 
f 30/51/25 31/52/25 32/53/25 
f 12/54/2 32/53/2 33/55/2 
f 33/56/26 32/53/26 10/57/26 
f 1/1/1 4/5/1 2/2/1 
f 4/5/27 11/58/27 5/6/27 
f 2/2/24 3/59/24 6/7/24 
f 8/9/4 34/60/4 35/61/4 
f 8/9/4 35/61/4 11/58/4 
f 8/9/4 11/58/4 4/5/4 
f 36/62/4 37/63/4 38/64/4 
f 7/8/4 36/62/4 38/64/4 
f 2/2/5 7/8/5 38/64/5 
f 2/2/5 38/64/5 39/65/5 
f 4/5/5 2/2/5 39/65/5 
f 4/5/4 39/65/4 9/10/4 
f 5/13/5 1/66/5 3/11/5 
f 6/12/28 33/67/28 10/14/28 
f 4/16/7 1/66/7 5/13/7 
f 2/17/27 7/68/27 12/12/27 
f 13/18/29 16/21/29 14/19/29 
f 17/22/10 19/24/10 14/19/10 
f 18/23/30 24/34/30 19/24/30 
f 21/26/31 27/42/31 15/27/31 
f 23/29/13 21/26/13 20/30/13 
f 24/31/32 28/43/32 23/29/32 
f 12/33/33 25/35/33 19/24/33 
f 25/35/1 26/36/1 14/19/1 
f 26/36/34 5/69/34 15/20/34 
f 12/44/35 24/70/35 18/71/35 
f 12/44/17 18/71/17 13/38/17 
f 5/37/35 12/44/35 13/38/35 
f 17/22/18 16/21/18 13/41/18 
f 27/42/19 21/26/19 23/29/19 
f 28/43/36 24/70/36 12/44/36 
f 5/37/37 15/39/37 27/42/37 
f 12/44/38 5/37/38 27/42/38 
f 5/45/39 29/72/39 20/25/39 
f 29/46/22 30/73/22 22/28/22 
f 30/47/40 12/74/40 24/31/40 
f 10/50/24 31/52/24 29/48/24 
f 30/51/25 29/48/25 31/52/25 
f 12/54/2 30/51/2 32/53/2 
f 32/53/26 31/52/26 10/57/26 
# 68 faces

